<?xml version="1.0" encoding="UTF-8"?>
<svg id="Design" xmlns="http://www.w3.org/2000/svg" width="1080" height="1080" version="1.1" viewBox="0 0 1080 1080">
  <!-- Generator: Adobe Illustrator 29.6.1, SVG Export Plug-In . SVG Version: 2.1.1 Build 9)  -->
  <path d="M920.713,554.127l-57.742-18.206-12.033-23.115,7.837-24.857,53.701-27.955-5.136-9.868v-11.13h-60.582l-18.39-18.389v-26.104l42.785-42.785-10.376-10.376-32.409,32.409v-13.721h-14.674v28.395l-8.754,8.754-29.606-29.606-19.401-37.268,10.916-5.683,27.097,8.543,4.421-14.022-13.075-4.123,28.401-14.784v45.097h14.674v-78.953h78.971v-14.703h-78.971v-78.966h-14.674v78.966h-76.858l9.961-31.593-10.628-3.351-7.864-7.864-42.808,42.808h-26.059l-18.414-18.414v-60.552h-14.674v45.878l-9.745-9.745-10.397,10.397,20.142,20.142v12.294h-41.957l-40.016-12.617,3.7-11.734,25.233-13.136-6.789-13.042-12.192,6.346,13.793-43.746-13.995-4.413-18.206,57.741-23.11,12.03-24.846-7.834-27.957-53.704-9.876,5.141h-11.129v60.512l-18.454,18.454h-26.024l-42.85-42.85-10.397,10.396,32.453,32.453h-13.729v14.703h28.432l8.706,8.706-29.693,29.693-37.154,19.341-5.713-10.976,8.539-27.081-13.995-4.413-4.126,13.086-14.761-28.357h45.068v-14.703h-78.972v-78.966h-14.674v78.966h-79v14.703h79v76.797l-31.624-9.971-3.344,10.606-7.867,7.867,42.835,42.835v26.053l-18.429,18.429h-60.571v14.703h45.868l-9.669,9.669,10.376,10.376,20.045-20.045h12.38v41.924l-12.608,39.988-11.807-3.723-13.094-25.153-13.016,6.776,6.318,12.137-43.745-13.792-4.421,14.022,57.767,18.214,12.034,23.119-7.836,24.854-53.729,27.969,5.136,9.867v11.118h60.595l18.405,18.405v26.088l-42.784,42.784,10.376,10.376,32.408-32.408v13.708h14.674v-28.381l8.746-8.746,29.625,29.625,19.386,37.241-10.917,5.683-27.122-8.552-4.421,14.022,13.1,4.131-28.398,14.783v-45.108h-14.674v78.966h-79v14.703h79v78.953h14.674v-78.953h76.857l-9.957,31.58,10.609,3.345,7.881,7.88,42.806-42.805h26.045l18.429,18.429v60.523h14.674v-45.85l9.716,9.716,10.397-10.396-20.112-20.112v-12.311h41.957l40.014,12.617-3.699,11.731-25.262,13.15,6.789,13.042,12.221-6.361-13.79,43.736,13.995,4.413,18.202-57.731,23.106-12.028,24.847,7.834,27.95,53.691,9.875-5.141h11.139v-60.501l18.452-18.452h26.011l42.836,42.836,10.397-10.396-32.439-32.439h13.716v-14.703h-28.419l-8.699-8.699,29.704-29.704,37.148-19.338,5.714,10.978-8.534,27.067,13.995,4.412,4.122-13.072,14.761,28.356h-45.095v14.703h79.001v78.953h14.674v-78.953h78.971v-14.703h-78.971v-76.797l31.595,9.962,3.346-10.612,7.865-7.865-42.806-42.806v-26.07l18.427-18.427h60.544v-14.703h-45.841l9.672-9.672-10.376-10.376-20.048,20.048h-12.379v-41.929l12.607-39.984,11.806,3.723,13.087,25.14,13.016-6.775-6.311-12.125,43.719,13.785,4.421-14.023ZM892.725,453.699l-24.76,12.889,3.193-3.192-3.529-3.528,1.513-4.799-4.343-1.37h27.926ZM187.301,626.315l24.685-12.85-3.14,3.14,3.552,3.552-1.505,4.774,4.388,1.383h-27.979ZM251.664,626.315h-12.314l-10.269-10.269,4.33-13.734,10.979-5.715,7.274,13.973v15.746ZM251.664,576.234l-1.047.545-5.702-10.954,3.714-11.779,3.035.957v21.231ZM804.92,417.951l8.775,8.775v12.27h-1.18l-9.805-18.835,2.21-2.21ZM734.694,258.472v7.908h79.001v17.28l-48.232,25.108-24.813-7.823-12.049-23.146,6.093-19.326ZM718.283,310.521l.347-1.104,11.829,3.729,5.669,10.891-2.847,1.482-14.998-14.999ZM719.607,332.639l-9.927,5.167,3.619-11.477,6.308,6.309ZM728.45,229.477l-8.454,26.811v-4.611h-4.994l-2.321-4.459-4.115,2.142,19.884-19.883ZM691.547,266.38h14.567l6.665,12.802-3.721,11.801-15.061-4.748-11.152-11.152,8.703-8.703ZM641.025,266.38h12.323l8.723,8.723-.81.811-20.237-6.381v-3.153ZM641.025,284.949l8.516,2.685-8.516,8.516v-11.201ZM514.201,244.962l11.762,3.708-.948,3.007h-21.22l-.532-1.022,10.938-5.693ZM520.379,266.38l-3.368,10.684-5.562-10.684h8.93ZM453.681,187.188l12.993,24.958-3.295-3.294-3.55,3.55-4.789-1.51-1.359,4.31v-28.014ZM453.681,239.301l10.204-10.204,13.893,4.38,5.68,10.912-14,7.288h-15.778v-12.376ZM426.602,266.38h12.405v1.149l-18.826,9.801-2.264-2.265,8.685-8.685ZM439.007,284.105v12.05l-7.925-7.925,7.925-4.125ZM332.622,360.361l5.195,9.98-11.538-3.638,6.342-6.342ZM313.07,349.664l11.001-5.727,1.446,2.776-15.015,15.015-1.124-.354,3.692-11.71ZM266.337,345.333v-78.953h17.361l25.064,48.149-7.847,24.886-23.079,12.015-19.337-6.097h7.837ZM286.226,386.004l-11.14,11.14-8.749-8.75v-14.403l12.886-6.708,11.738,3.701-4.736,15.02ZM296.146,438.996h-11.242l2.695-8.547,8.547,8.547ZM275.901,418.751l-6.383,20.245h-3.181v-12.351l8.729-8.729.835.835ZM251.664,365.054l-4.455,2.319,2.054,3.946-19.692-19.691,26.649,8.402h-4.556v5.024ZM275.104,662.071l-8.767-8.767v-12.285h1.177l9.806,18.836-2.216,2.216ZM345.309,821.63v-7.996h-78.972v-17.282l48.228-25.106,24.814,7.824,12.051,23.148-6.121,19.412ZM361.745,769.504l-.344,1.092-11.831-3.73-5.669-10.89,2.838-1.478,15.006,15.006ZM360.413,747.379l9.939-5.174-3.623,11.49-6.316-6.316ZM351.581,850.538l8.426-26.724v4.523h5.02l2.314,4.445,4.163-2.167-19.923,19.923ZM388.484,813.634h-14.568l-6.663-12.8,3.721-11.804,15.04,4.743,11.166,11.166-8.695,8.695ZM439.007,813.634h-12.339l-8.716-8.715.817-.818,20.238,6.381v3.152ZM439.007,795.066l-8.517-2.686,8.517-8.517v11.202ZM565.827,835.052l-11.759-3.708.948-3.007h21.219l.531,1.02-10.938,5.694ZM559.652,813.634l3.368-10.682,5.561,10.682h-8.929ZM626.351,892.832l-13.002-24.977,3.305,3.305,3.548-3.547,4.761,1.501,1.388-4.402v28.12ZM626.351,840.711l-10.206,10.206-13.894-4.381-5.681-10.913,13.996-7.286h15.784v12.374ZM653.428,813.634h-12.403v-1.152l18.813-9.793,2.268,2.268-8.678,8.678ZM641.025,795.906v-12.03l7.912,7.912-7.912,4.118ZM736.054,746.437l-7.714-7.714-24.467,24.467-31.005,16.141,5.089,9.775-5.454,5.454-31.478-31.478v-28.414h-14.674v13.74l-9.71-9.71-10.396,10.396,20.107,20.107v34.343l-19.382,10.089h-21.845l-15.864-30.474,8.554-27.128-13.995-4.413-4.141,13.134-6.359-12.215-13.016,6.775,13.135,25.232-13.364,42.386-7.421-2.34v-10.958h-34.751l-33.172-10.458-3.298,10.458h-7.75v-44.444l20.109-20.109-10.376-10.376-9.733,9.733v-13.77h-14.674v28.444l-24.294,24.293-20.847-6.573-15.439-15.439,10.332-32.77,25.19-13.113-6.789-13.042-12.148,6.324,4.129-13.096-13.995-4.412-8.541,27.09-39.493,20.559-3.573-6.863,7.783-7.782-24.684-24.685-15.989-30.713-9.684,5.041-5.485-5.484,31.428-31.428h28.401v-14.703h-13.698l9.707-9.706-10.376-10.376-20.082,20.082h-34.456l-10.066-19.337v-21.807l30.557-15.907,27.051,8.529,4.421-14.022-13.029-4.108,12.117-6.307-6.789-13.042-25.158,13.097-42.457-13.387,2.324-7.373h10.963v-34.77l10.458-33.168-10.458-3.297v-7.716h44.512l20.059,20.059,10.396-10.396-9.662-9.663h13.667v-14.703h-28.37l-24.356-24.356,6.558-20.799,15.417-15.417,32.859,10.361,13.11,25.183,13.016-6.775-6.334-12.168,13.064,4.119,4.421-14.022-27.087-8.54-20.521-39.42,6.891-3.587,7.715,7.715,24.469-24.47,30.973-16.123-5.084-9.767,5.469-5.469,31.487,31.487v28.384h14.674v-13.71l9.681,9.682,10.397-10.397-20.078-20.078v-34.363l19.375-10.086h21.85l15.864,30.475-8.549,27.113,13.995,4.413,4.136-13.119,6.351,12.2,13.016-6.775-13.127-25.217,13.365-42.388,7.393,2.332v10.966h34.781l33.142,10.45,3.295-10.45h7.782v44.444l-20.107,20.107,10.376,10.376,9.731-9.731v13.757h14.674v-28.431l24.293-24.293,20.825,6.566,15.457,15.458-10.328,32.756-25.219,13.128,6.789,13.042,12.177-6.339-4.126,13.085,13.995,4.412,8.538-27.079,39.49-20.558,3.56,6.839-7.795,7.795,24.724,24.724,15.968,30.674,9.671-5.035,5.498,5.499-31.421,31.421h-28.429v14.703h13.726l-9.704,9.704,10.376,10.375,20.08-20.08h34.454l10.068,19.342v21.799l-30.561,15.909-27.076-8.537-4.421,14.022,13.053,4.116-12.141,6.32,6.789,13.042,25.183-13.11,42.46,13.388-2.32,7.359h-10.966v34.778l-10.456,33.161,10.456,3.296v7.73h-44.527l-20.072-20.072-10.396,10.397,9.676,9.675h-13.681v14.703h28.384l24.366,24.366-6.555,20.789-15.417,15.417-32.861-10.361-13.117-25.197-13.016,6.775,6.341,12.181-13.09-4.127-4.422,14.022,27.113,8.549,20.52,39.419-6.887,3.585ZM284.058,641.019h12.099l-7.957,7.957-4.142-7.957ZM266.337,568.596v-8.966l10.727,3.382-10.727,5.583ZM795.972,438.996h-12.097l7.956-7.956,4.142,7.956ZM813.694,511.416v8.969l-10.73-3.384,10.73-5.585ZM793.804,694.01l11.133-11.133,8.758,8.758v14.385l-12.89,6.71-11.736-3.7,4.736-15.02ZM783.871,641.019h11.256l-2.698,8.558-8.557-8.558ZM804.957,662.105l-.832-.832,6.387-20.255h3.182v12.349l-8.737,8.737ZM747.408,719.654l-5.196-9.981,11.539,3.638-6.343,6.343ZM766.961,730.348l-11.003,5.728-1.444-2.774,15.016-15.017,1.124.354-3.692,11.708ZM813.694,734.668v78.966h-17.363l-25.064-48.147,7.848-24.89,23.076-12.013,19.297,6.084h-7.794ZM830.714,708.655l19.725,19.725-26.67-8.409h4.599v-5.013l4.427-2.305-2.081-3.998ZM831.402,525.968l-3.033-.957v-21.234l1.044-.543,5.703,10.956-3.714,11.778ZM835.638,483.417l-7.27-13.967v-15.751h12.299l10.279,10.28-4.326,13.721-10.982,5.717ZM689.931,641.019l9.762,18.752,13.016-6.775-6.235-11.977h13.523v-14.703h-21.177l-22.567-43.352,18.921-9.85,33.133,33.133,10.396-10.396-29.855-29.855,37.453-19.497-6.789-13.042-41.565,21.637-15.085-15.085,34.562-34.562,20.195,6.368,4.421-14.022-12.895-4.066,9.554-9.554-10.376-10.376-14.956,14.956-46.644-14.706,6.415-20.346h46.857v-14.703h-42.221l12.695-40.263-13.995-4.412-14.086,44.675h-21.364v-48.874l18.781-9.777-6.789-13.042-11.992,6.243v-13.516h-14.674v21.154l-43.382,22.583-9.863-18.946,33.121-33.122-10.376-10.376-29.85,29.85-19.495-37.45-13.016,6.776,21.631,41.553-15.108,15.108-34.581-34.58,6.364-20.183-13.995-4.413-4.066,12.898-9.584-9.583-10.396,10.396,14.996,14.996-14.695,46.605-20.375-6.424v-46.843h-14.674v42.217l-40.295-12.706-4.421,14.023,44.717,14.099v21.333h-48.908l-9.769-18.767-13.016,6.776,6.242,11.991h-13.55v14.703h21.204l22.567,43.35-18.93,9.854-33.15-33.15-10.397,10.396,29.872,29.872-37.469,19.505,6.789,13.042,41.581-21.646,15.089,15.089-34.554,34.555-20.224-6.377-4.421,14.022,12.924,4.075-9.552,9.552,10.376,10.376,14.954-14.954,46.643,14.707-6.415,20.346h-46.885v14.703h42.249l-12.69,40.249,13.995,4.413,14.082-44.662h21.365v48.872l-18.81,9.792,6.789,13.042,12.021-6.258v13.505h14.674v-21.144l43.379-22.582,9.864,18.949-33.118,33.118,10.376,10.376,29.847-29.846,19.487,37.435,13.016-6.775-21.623-41.539,15.102-15.102,34.584,34.584-6.356,20.158,13.995,4.412,4.059-12.873,9.56,9.56,10.397-10.397-14.972-14.971,14.698-46.617,20.376,6.424v46.829h14.674v-42.202l40.266,12.696,4.421-14.022-44.687-14.09v-21.333h48.906ZM684.272,562.213l-14.809,7.709-5.653-10.86,8.656-8.656,11.807,11.807ZM701.646,500.473l-29.161,29.161-17.706-17.706,7.523-23.86,39.344,12.405ZM662.089,540.03l-5.384,5.384-7.775-14.935.865-2.743,12.294,12.294ZM641.025,453.699h16.728l-5.024,15.933-11.704-3.69v-12.243ZM641.025,481.359l7.283,2.296-5.226,16.575-2.057-2.056v-16.814ZM641.025,555.552l1.665-5.281,3.135,6.022-4.801,4.801v-5.542ZM641.025,581.846l11.905-11.905,3.517,6.757-15.422,8.028v-2.88ZM641.025,601.302l22.211-11.563,19.04,36.576h-41.252v-25.013ZM395.748,517.805l14.818-7.714,5.655,10.863-8.662,8.662-11.811-11.811ZM378.385,579.541l29.153-29.153,17.709,17.709-7.519,23.849-39.343-12.405ZM417.935,539.992l5.391-5.39,7.775,14.935-.868,2.752-12.297-12.297ZM439.007,626.315h-16.729l5.024-15.934,11.705,3.691v12.243ZM439.007,598.656l-7.284-2.296,5.222-16.564,2.062,2.062v16.798ZM439.007,524.458l-1.667,5.288-3.135-6.024,4.802-4.802v5.539ZM439.007,498.167l-11.907,11.907-3.518-6.759,15.425-8.03v2.882ZM439.007,478.709l-22.215,11.564-19.039-36.574h41.254v25.01ZM626.351,397.76v41.236h-25.044l-11.55-22.187,36.593-19.049ZM610.29,456.251l-1.329-2.552h17.39v7.617l-16.061-5.064ZM626.351,476.732v6.767l-3.915-3.915-2.545-4.889,6.46,2.037ZM576.742,423.585l8.022,15.411h-2.916l-11.883-11.883,6.777-3.528ZM562.226,395.701l7.727,14.843-10.889,5.668-8.674-8.675,11.837-11.836ZM556.29,434.231l4.765,4.765h-5.492l-5.248-1.654,5.975-3.11ZM545.389,423.33l-14.904,7.759-2.773-.875,12.281-12.281,5.396,5.396ZM500.449,378.39l29.168,29.168-17.682,17.683-23.884-7.531,12.398-39.32ZM483.63,431.732l16.584,5.229-2.035,2.035h-16.839l2.29-7.264ZM476.704,453.699h6.772l-3.883,3.882-4.921,2.562,2.032-6.445ZM453.681,422.29l15.954,5.03-3.682,11.676h-12.272v-16.707ZM453.681,453.699h7.636l-5.053,16.027-2.583,1.345v-17.372ZM453.681,682.251v-41.232h25.041l11.549,22.185-36.59,19.047ZM469.739,623.762l1.329,2.553h-17.388v-7.616l16.058,5.063ZM453.681,603.283v-6.751l3.927,3.927,2.53,4.859-6.457-2.036ZM503.287,656.428l-8.021-15.409h2.903l11.886,11.886-6.767,3.523ZM517.804,684.314l-7.728-14.845,10.879-5.663,8.679,8.679-11.83,11.83ZM523.729,645.787l-4.768-4.768h5.508l5.243,1.653-5.983,3.115ZM534.63,656.687l14.913-7.763,2.776.875-12.288,12.288-5.401-5.4ZM579.579,701.636l-29.172-29.172,17.69-17.69,23.883,7.53-12.401,39.332ZM596.401,648.282l-16.584-5.228,2.035-2.035h16.839l-2.29,7.263ZM603.327,626.315h-6.772l3.888-3.888,4.916-2.56-2.033,6.448ZM626.351,657.725l-15.955-5.03,3.681-11.676h12.274v16.707ZM626.351,626.315h-7.638l5.054-16.03,2.584-1.345v17.375ZM628.225,547.35h-1.874v5.943l-1.785,5.661,1.785.562v15.412l-6.204-1.956-4.145,13.146-9.741,9.741,4.581,4.58-13.67,7.116-1.304-1.304-4.135,4.135-5.36,2.791.88,1.69-10.897,10.897-3.02-5.801-12.203,6.353h-13.782v6.501l-14.698-4.634v-1.867h-5.921l-5.675-1.789-.564,1.789h-15.411l1.958-6.209-13.13-4.14-9.74-9.74-4.614,4.614-7.116-13.67,1.337-1.337-4.239-4.239-2.712-5.21-1.643.855-10.897-10.897,5.753-2.995-6.357-12.211v-13.786h-6.505l4.634-14.698h1.871v-5.935l1.787-5.668-1.787-.563v-15.412l6.207,1.958,4.141-13.133,9.743-9.743-4.582-4.582,13.67-7.116,1.305,1.305,4.138-4.138,5.327-2.773-.874-1.679,10.897-10.898,3.014,5.791,12.226-6.364h13.759v-6.51l14.698,4.634v1.876h5.95l5.646,1.78.561-1.78h15.411l-1.955,6.2,13.136,4.142,9.734,9.734,4.626-4.626,7.116,13.669-1.35,1.35,4.281,4.281,2.69,5.168,1.629-.848,10.897,10.897-5.74,2.988,6.366,12.23v13.767h6.508l-4.634,14.698Z" fill="#dcd546"/>
</svg>