<?xml version="1.0" encoding="UTF-8"?>
<svg id="Design" xmlns="http://www.w3.org/2000/svg" width="1920" height="1080" version="1.1" viewBox="0 0 1920 1080">
  <!-- Generator: Adobe Illustrator 29.6.1, SVG Export Plug-In . SVG Version: 2.1.1 Build 9)  -->
  <path d="M357.036,498.864l-15.542-3.729c-15.127-3.73-24.66-8.082-24.66-20.308,0-10.567,9.532-16.785,22.795-16.785,16.992,0,31.912,7.46,39.579,24.659l17.614-16.784c-9.947-19.064-30.254-29.633-55.743-29.633-26.109,0-48.696,14.092-48.696,40.201,0,26.318,20.928,35.227,40.615,39.372l13.056,2.901c18.028,3.938,29.217,7.668,29.217,21.137,0,12.64-11.189,17.613-25.073,17.613-16.993,0-37.921-7.875-45.382-28.181l-16.577,16.785c10.776,23.415,35.02,32.947,61.544,32.947,28.183,0,49.319-14.506,49.319-39.579,0-26.524-19.894-35.228-42.066-40.616Z"/>
  <polygon points="501.498 499.072 487.614 534.505 473.937 499.072 444.097 438.148 415.295 438.148 415.295 576.986 438.711 576.986 438.711 511.711 435.394 465.917 451.765 505.703 475.802 553.57 499.425 553.57 523.463 505.703 539.419 465.917 536.518 511.711 536.518 576.986 559.934 576.986 559.934 438.148 531.337 438.148 501.498 499.072"/>
  <path d="M626.855,438.148l-54.292,138.838h24.659l13.262-35.02h58.643l13.262,35.02h25.696l-54.293-138.838h-26.938ZM618.151,521.658l14.299-37.506,7.459-25.074,7.461,25.074,14.09,37.506h-43.309Z"/>
  <path d="M794.597,520.622c21.758-2.487,37.713-16.164,37.713-39.372,0-28.596-21.136-43.103-49.318-43.103h-62.579v138.838h23.416v-53.878h16.992c13.054,0,20.1,3.316,25.281,12.641l24.038,41.238h26.938l-23.623-39.995c-4.973-8.702-10.567-13.884-18.856-16.37ZM780.713,504.045h-36.885v-45.174h36.885c14.712,0,27.353,5.388,27.353,23.001,0,16.785-12.641,22.172-27.353,22.172Z"/>
  <polygon points="948.551 438.148 839.968 438.148 839.968 458.871 882.449 458.871 882.449 576.986 905.865 576.986 905.865 458.871 948.551 458.871 948.551 438.148"/>
  <path d="M1163.203,438.255l-54.292,138.838h24.659l13.263-35.021h58.642l13.263,35.021h25.696l-54.293-138.838h-26.938ZM1154.499,521.765l14.299-37.507,7.459-25.074,7.461,25.074,14.09,37.507h-43.309Z"/>
  <path d="M1304.196,524.873h39.993c-4.973,19.271-15.334,31.912-38.75,31.912-27.353,0-40.822-19.893-40.822-49.318,0-28.804,13.262-49.111,42.272-49.111,22.381,0,35.643,13.676,39.786,31.498l20.308-14.505c-9.532-25.074-31.082-39.165-60.301-39.165-43.101,0-66.932,30.462-66.932,71.283,0,44.137,21.344,71.285,56.986,71.285,30.875,0,48.489-22.588,49.525-53.878l6.423,52.22h14.92v-71.907h-63.409v19.687Z"/>
  <rect x="1384.236" y="438.255" width="23.416" height="138.838"/>
  <polygon points="1447.435 438.255 1424.019 438.255 1424.019 577.093 1518.51 577.093 1518.51 556.37 1447.435 556.37 1447.435 438.255"/>
  <polygon points="1631.76 458.978 1631.76 438.255 1533.538 438.255 1533.538 577.093 1631.76 577.093 1631.76 556.37 1556.954 556.37 1556.954 516.584 1618.911 516.584 1618.911 495.862 1556.954 495.862 1556.954 458.978 1631.76 458.978"/>
  <polygon points="1012.746 499.841 1002.236 499.841 1002.236 566.677 935.52 566.677 935.52 577.175 1002.236 577.174 1002.236 643.785 1012.735 643.785 1012.735 577.174 1079.484 577.174 1079.484 566.677 1012.745 566.677 1012.746 499.841"/>
</svg>